<svg xmlns="http://www.w3.org/2000/svg" fill="none" viewBox="0 0 520 200"><g id="Frame_2" clip-path="url(#clip0_1481_1433)"><path id="Vector" fill="#1a2744" fill-opacity=".3" d="M288 0h-56a8 8 0 0 0-8 8v10a8 8 0 0 0 8 8h56a8 8 0 0 0 8-8V8a8 8 0 0 0-8-8"/><g id="Group" stroke-width="1.2"><path id="Vector_2" stroke="url(#paint0_linear_1481_1433)" d="M260 26 48 166"/><path id="Vector_3" stroke="url(#paint1_linear_1481_1433)" d="M260 26 147 172"/><path id="Vector_4" stroke="url(#paint2_linear_1481_1433)" d="m260 26-4 138"/><path id="Vector_5" stroke="url(#paint3_linear_1481_1433)" d="m260 26 111 150"/><path id="Vector_6" stroke="url(#paint4_linear_1481_1433)" d="m260 26 212 136"/></g><path id="Vector_7" stroke="#d4351c" stroke-dasharray="6 9" stroke-opacity=".4" stroke-width="1.4" d="M128 100h382"/><g id="Group_2" fill="#1a2744" fill-opacity=".3"><path id="Vector_8" d="M48 184.5a8.5 8.5 0 1 0 0-17 8.5 8.5 0 0 0 0 17"/><path id="Vector_9" d="M147 190.5a8.5 8.5 0 1 0 0-17 8.5 8.5 0 0 0 0 17"/><path id="Vector_10" d="M256 182.5a8.5 8.5 0 1 0 0-17 8.5 8.5 0 0 0 0 17"/><path id="Vector_11" d="M371 194.5a8.5 8.5 0 1 0 0-17 8.5 8.5 0 0 0 0 17"/><path id="Vector_12" d="M472 180.5a8.5 8.5 0 1 0 0-17 8.5 8.5 0 0 0 0 17"/></g></g><defs><linearGradient id="paint0_linear_1481_1433" x1="48" x2="48" y1="26" y2="166" gradientUnits="userSpaceOnUse"><stop stop-color="#1a2744" stop-opacity=".2"/><stop offset="1" stop-color="#1a2744" stop-opacity="0"/></linearGradient><linearGradient id="paint1_linear_1481_1433" x1="147" x2="147" y1="26" y2="172" gradientUnits="userSpaceOnUse"><stop stop-color="#1a2744" stop-opacity=".2"/><stop offset="1" stop-color="#1a2744" stop-opacity="0"/></linearGradient><linearGradient id="paint2_linear_1481_1433" x1="256" x2="256" y1="26" y2="164" gradientUnits="userSpaceOnUse"><stop stop-color="#1a2744" stop-opacity=".2"/><stop offset="1" stop-color="#1a2744" stop-opacity="0"/></linearGradient><linearGradient id="paint3_linear_1481_1433" x1="260" x2="260" y1="26" y2="176" gradientUnits="userSpaceOnUse"><stop stop-color="#1a2744" stop-opacity=".2"/><stop offset="1" stop-color="#1a2744" stop-opacity="0"/></linearGradient><linearGradient id="paint4_linear_1481_1433" x1="260" x2="260" y1="26" y2="162" gradientUnits="userSpaceOnUse"><stop stop-color="#1a2744" stop-opacity=".2"/><stop offset="1" stop-color="#1a2744" stop-opacity="0"/></linearGradient><clipPath id="clip0_1481_1433"><path fill="#fff" d="M0 0h520v200H0z"/></clipPath></defs></svg>